<?xml version="1.0" encoding="UTF-8" standalone="no"?>
<!-- Created with Inkscape (http://www.inkscape.org/) -->

<svg
   version="1.1"
   id="svg1"
   width="384"
   height="372"
   viewBox="0 0 384 372"
   xml:space="preserve"
   xmlns="http://www.w3.org/2000/svg"
   xmlns:svg="http://www.w3.org/2000/svg"><defs
     id="defs1" /><g
     id="g1"><path
       style="fill:#000000;stroke-width:1.20558"
       d="m 355.01115,351.91047 c -1.71127,-1.27872 -5.0976,-4.14424 -7.52518,-6.36782 -4.25787,-3.90006 -17.72014,-11.31371 -25.84757,-14.23422 -2.47463,-0.88923 -4.19757,-2.46567 -4.64554,-4.25052 -0.5968,-2.37787 -1.09049,-2.63453 -3.05013,-1.58578 -1.70627,0.91318 -5.82622,0.58428 -15.24654,-1.21714 -32.03501,-6.12592 -50.29552,-7.47467 -64.8284,-4.78827 -3.93442,0.72728 -15.29117,3.54325 -25.23721,6.25769 -10.99171,2.99984 -20.28175,4.85266 -23.68847,4.72446 -3.70818,-0.13955 -5.8127,0.33096 -6.21929,1.39049 -0.33798,0.88078 -4.05471,2.26819 -8.2594,3.08311 -4.20469,0.81494 -8.83229,1.71533 -10.28355,2.00088 -1.45128,0.28555 -2.97521,-0.0253 -3.3865,-0.69082 -1.46817,-2.37555 -11.31068,-1.33689 -16.00253,1.6887 -6.17541,3.9823 -20.21427,6.42183 -42.602358,7.40299 -24.679959,1.08161 -32.613211,0.15742 -37.809047,-4.40459 -4.423406,-3.8838 -6.692449,-4.27307 -10.62647,-1.82303 -1.607251,1.00096 -4.466098,1.42878 -7.181867,1.07475 -4.019469,-0.52398 -4.665089,-1.10003 -5.917335,-5.27966 -1.602758,-5.34952 -2.773244,-5.77598 -5.753057,-2.09607 l -2.101648,2.59544 -6.530659,-3.49962 -6.53066,-3.49961 -0.796359,-30.1395 c -0.437999,-16.57673 -1.095543,-33.52825 -1.461211,-37.67006 -0.787545,-8.92026 -0.783397,-8.92565 15.171312,-19.72171 7.105678,-4.80819 11.687319,-7.10678 14.165568,-7.10678 4.245723,0 4.525801,-0.98363 1.412625,-4.96113 C 36.49128,218.90582 29.573716,197.51348 27.299859,176.43778 23.709371,143.15861 23.590656,140.93412 24.782205,129.26126 27.644644,101.21974 31.103976,89.502944 44.44455,62.664668 50.036377,51.415151 67.400724,33.970134 77.839732,29.11434 90.943837,23.018855 101.60654,20.331046 118.42438,18.883942 c 14.0686,-1.210543 16.8944,-1.124601 24.71439,0.751648 13.21481,3.170629 17.57783,5.512345 30.27475,16.249005 6.37322,5.389266 11.93393,9.798665 12.35715,9.798665 0.42322,0 6.35615,-4.071344 13.18427,-9.047431 14.37026,-10.472496 21.95991,-14.124239 35.15177,-16.913179 11.01827,-2.329414 37.25082,-2.705343 47.46148,-0.680153 18.26074,3.621845 44.44211,23.919009 53.28122,41.306386 16.02439,31.521507 17.35543,38.139846 19.72038,98.056137 1.1287,28.59548 -2.45776,48.41393 -12.60691,69.66468 l -4.48251,9.38568 4.29318,2.55454 c 16.40993,9.76428 20.98744,13.85849 25.8926,23.15874 2.87261,5.44654 3.11487,7.08808 3.11362,21.09766 -10e-4,13.78344 -2.23784,35.7273 -6.18701,60.70224 -1.2955,8.19285 -1.78479,9.33855 -3.97382,9.30506 -1.37302,-0.021 -3.89653,-1.08442 -5.60779,-2.36315 z M 125.8748,329.43459 c 4.21451,-0.96664 8.99468,-2.63024 10.62261,-3.6969 2.06584,-1.35358 6.67013,-2.08862 15.24329,-2.43345 10.4525,-0.42044 13.51244,-1.04302 20.52886,-4.17682 6.51469,-2.90972 9.29831,-3.54037 13.26138,-3.00444 3.64329,0.49267 9.79972,-0.58426 22.49685,-3.93536 22.01757,-5.81099 30.8406,-7.3046 43.1495,-7.3046 11.02681,0 42.12299,4.1104 50.68736,6.70003 5.39027,1.62988 5.87777,1.56767 11.75344,-1.49973 3.44797,-1.8 6.99679,-2.86747 8.11123,-2.43983 1.08971,0.41817 3.45947,3.40784 5.26613,6.64373 2.83581,5.07916 4.61106,6.56253 12.98643,10.85117 5.33587,2.73226 10.2378,5.12453 10.89316,5.31617 2.1603,0.63171 5.47204,-21.01758 6.21699,-40.6413 l 0.73226,-19.28928 -7.68715,-7.56963 c -7.54765,-7.43227 -23.03775,-16.35915 -36.83168,-21.22592 -4.77018,-1.68303 -5.17199,-1.63251 -8.90119,1.11881 -4.59271,3.3884 -5.56109,3.00672 -11.23296,-4.4273 -3.62228,-4.74764 -5.06647,-5.70246 -9.66909,-6.39267 -5.04101,-0.75595 -5.72113,-0.51869 -9.95149,3.4715 -5.18733,4.89285 -9.75466,5.54642 -13.0802,1.87175 -3.12793,-3.45634 -5.87128,-2.99158 -9.9828,1.69117 -7.15944,8.15416 -11.74349,7.92203 -19.09513,-0.96691 -3.59281,-4.34411 -4.99076,-4.7364 -15.92447,-4.46874 -4.42586,0.10838 -5.9599,0.87683 -10.10221,5.06075 -3.98928,4.02934 -5.46268,4.80197 -8.04313,4.21765 -12.42795,-2.8142 -16.47221,-3.02365 -24.12308,-1.24929 -16.08767,3.73099 -58.99407,10.39869 -70.0574,10.88701 -10.757334,0.47482 -11.636094,0.7124 -14.466965,3.91128 -1.657673,1.87317 -4.509389,4.37813 -6.337133,5.56659 l -3.323183,2.16084 -4.575182,-5.00519 -4.575183,-5.00517 -13.80208,-1.36846 c -15.56315,-1.54306 -21.43356,-0.85648 -25.958942,3.03609 l -3.124522,2.6876 0.879242,29.15764 c 0.829759,27.51664 1.000878,29.09253 3.04051,28.00095 4.009549,-2.14584 7.376389,-1.20395 11.400489,3.18934 3.856852,4.2107 4.117479,4.30089 8.371162,2.89706 5.645999,-1.86335 9.504627,-0.34916 15.83196,6.2127 l 4.691948,4.86585 23.508815,-0.82858 c 13.104524,-0.46188 26.900114,-1.60641 31.171554,-2.58611 z M 60.344209,308.84235 c -7.769127,-1.87947 -13.711723,-13.90828 -11.259215,-22.79052 1.778771,-6.44219 8.899164,-13.71948 13.42367,-13.71948 9.185181,0 16.139523,6.28776 17.407154,15.73867 0.800977,5.97172 -2.677793,16.1505 -6.564622,19.20787 -2.937874,2.31094 -7.600428,2.87138 -13.006987,1.56346 z m 9.023116,-8.77162 c 5.541013,-2.96547 2.830864,-16.76625 -4.007955,-20.40956 -2.964108,-1.57909 -3.45986,-1.48483 -6.34076,1.20558 -2.724225,2.54411 -3.055281,3.65847 -2.579989,8.68446 0.860038,9.09451 6.705035,13.85032 12.928704,10.51952 z m 12.454802,8.07461 c -0.323457,-0.52645 0.272437,-2.27053 1.324186,-3.87571 1.35424,-2.06683 1.912291,-5.8107 1.912291,-12.82928 0,-8.41595 -0.382711,-10.31813 -2.537469,-12.61175 -1.395605,-1.48556 -2.227886,-3.20193 -1.84951,-3.81416 0.378376,-0.61222 3.961542,-1.21135 7.962573,-1.33142 6.759062,-0.2028 7.274628,-0.0301 7.274628,2.43595 0,1.45981 -0.804724,3.54342 -1.788273,4.63024 -1.418486,1.56741 -1.630824,4.01759 -1.026889,11.84933 0.814635,10.56386 1.921852,11.84009 6.963726,8.02661 4.0709,-3.07909 5.6804,-2.23853 5.26747,2.75089 l -0.37418,4.52093 -11.270224,0.60279 c -6.198624,0.33153 -11.534871,0.17205 -11.858329,-0.35442 z m 26.618863,-12.15645 c -0.11875,-11.7457 -0.33218,-12.77817 -3.50085,-16.9325 -4.57243,-5.99476 -2.99156,-7.39746 7.99258,-7.09179 10.16607,0.2829 14.98972,2.71164 18.82161,9.47679 4.6034,8.12721 3.22969,17.58802 -3.09617,21.32345 -2.84309,1.67884 -16.33249,5.73694 -19.05917,5.73369 -0.56737,-6.9e-4 -1.08846,-5.63003 -1.158,-12.50964 z m 15.31147,0.37298 c 4.12328,-2.93605 4.43849,-6.20259 1.12318,-11.63996 -2.01813,-3.30991 -7.64447,-6.4321 -9.0093,-4.99947 -0.43652,0.4582 1.14026,11.57522 2.32894,16.42012 0.81655,3.32821 1.17146,3.34222 5.55718,0.21931 z m 198.50406,1.55626 c -8.4461,-1.90589 -9.41472,-2.88714 -6.27489,-6.35662 1.02453,-1.13209 2.94594,-6.59333 4.26978,-12.13609 1.96878,-8.24294 2.1389,-10.5787 0.93442,-12.8293 -2.28304,-4.26589 -0.1442,-5.17045 7.82148,-3.30788 3.87872,0.90694 7.33643,1.93321 7.68382,2.2806 1.19203,1.19203 -0.88463,4.58143 -3.17376,5.18005 -2.37666,0.62152 -3.98773,5.34109 -5.58183,16.35182 -0.91061,6.28968 -0.12603,6.8787 6.03992,4.53441 3.6726,-1.39632 4.99177,0.50362 3.75925,5.41433 -0.89051,3.5481 -3.06364,3.67006 -15.47819,0.86868 z m -166.97286,0.0862 c -3.39098,-0.65314 -3.38097,-1.31286 0.0857,-5.64516 2.65778,-3.32144 2.99153,-3.41426 7.23799,-2.0128 7.84927,2.59049 7.67186,0.57674 -0.39158,-4.44466 -14.76723,-9.19611 -17.32948,-12.68653 -14.43774,-19.66779 1.54144,-3.72136 4.07973,-4.71134 12.14112,-4.73531 6.04283,-0.018 10.17112,2.9382 8.86316,6.34667 -1.03646,2.70098 -3.44187,3.31784 -7.92459,2.03221 -8.23472,-2.36169 -5.96078,1.88266 4.18871,7.81829 5.35467,3.13153 8.50969,5.89306 9.77205,8.55328 2.44506,5.15259 2.38583,5.6633 -1.09213,9.41609 -2.53289,2.73303 -3.87131,3.16647 -9.34325,3.02581 -3.51277,-0.0903 -7.60751,-0.39928 -9.09942,-0.68663 z m 138.80236,-6.90881 c -7.5261,-3.27193 -12.51783,-9.51862 -12.51783,-15.66495 0,-4.07068 3.42326,-12.72082 6.30656,-15.93587 3.12964,-3.48974 7.44315,-4.12351 14.26888,-2.09649 4.9937,1.48296 6.02387,2.38919 8.42103,7.40773 1.50221,3.14492 2.96035,8.4306 3.2403,11.74594 0.46829,5.54579 0.17628,6.3764 -3.65111,10.38521 -4.86663,5.09731 -10.53421,6.56409 -16.06783,4.15841 z m 10.46634,-6.85335 c 2.50656,-4.68355 1.60207,-10.56167 -2.56474,-16.66782 -2.65085,-3.88464 -4.58734,-5.59292 -5.93928,-5.23938 -2.67423,0.69933 -6.04109,6.57615 -6.04109,10.54468 0,9.43876 10.98292,18.01853 14.54511,11.36252 z m -117.84028,3.90286 c -8.75375,-6.3412 -11.45092,-17.83574 -6.11124,-26.04433 6.06906,-9.32987 23.28254,-9.49267 20.94977,-0.19815 -0.9129,3.6373 -4.52101,5.05277 -8.05653,3.16062 -3.92193,-2.09897 -8.37231,-0.5074 -8.37231,2.99413 0,4.36708 1.74164,8.10904 5.53939,11.90153 2.63334,2.62971 4.10963,3.23187 6.47102,2.63951 7.27368,-1.82465 9.45346,-1.97946 10.22788,-0.72644 1.50541,2.4358 -0.51117,5.67369 -4.8105,7.7239 -6.09275,2.90543 -10.36402,2.51415 -15.83748,-1.45079 z m 28.01748,0.72039 c -0.23237,-0.80483 -1.10449,-7.70219 -1.93803,-15.32749 -0.8518,-7.79234 -2.30529,-15.07925 -3.31885,-16.63863 -2.17329,-3.34368 -1.1358,-4.52139 4.76854,-5.413 4.86242,-0.73426 5.7925,0.60958 5.82592,8.4177 0.0201,4.69811 1.24267,5.58571 5.47656,3.97598 3.13081,-1.19033 3.22137,-1.4756 2.44396,-7.6979 l -0.80734,-6.46176 4.30841,-0.80826 c 2.36963,-0.44454 4.84171,-0.47867 5.4935,-0.0758 0.65178,0.40283 1.18507,3.62429 1.18507,7.15878 0,3.5345 0.84863,10.90002 1.88586,16.36782 1.03722,5.46779 1.44411,10.36811 0.90419,10.88958 -0.53993,0.52148 -3.04785,1.32795 -5.57318,1.79216 l -4.59149,0.844 0.28721,-4.06554 c 0.15796,-2.23605 0.18972,-5.80048 0.0705,-7.92097 -0.21324,-3.79496 -0.27808,-3.83492 -4.13478,-2.54801 -5.56684,1.85754 -5.72756,2.20094 -3.74352,7.99802 2.04546,5.97653 1.23758,7.71454 -4.51873,9.72121 -2.69007,0.93776 -3.70827,0.88517 -4.02386,-0.20786 z m 40.69569,-5.00001 c -7.28894,-3.39369 -10.4375,-8.26783 -10.32095,-15.97735 0.1,-6.60802 5.9738,-15.36799 11.99055,-17.88195 4.12012,-1.72149 4.58418,-1.65949 9.60598,1.28348 2.90219,1.7008 6.68672,5.22304 8.41007,7.82719 2.73834,4.13791 3.06562,5.67141 2.596,12.16388 -0.48479,6.70211 -0.96925,7.82483 -4.95103,11.47386 -5.32113,4.87646 -8.76838,5.09743 -17.33062,1.11089 z m 11.92643,-5.20374 c 4.57059,-5.27007 3.41137,-14.42721 -2.43636,-19.24593 -5.38112,-4.4342 -8.78101,-3.29465 -10.4904,3.51611 -1.03927,4.14083 1.11557,10.69294 4.83744,14.70891 3.39593,3.66427 5.55996,3.93738 8.08932,1.02091 z M 85.418602,242.79563 c 1.106687,-2.32074 2.699066,-4.22084 3.538632,-4.22246 8.102126,-0.0155 35.687796,-2.87721 41.883246,-4.34488 22.01326,-5.21481 55.64875,-11.14687 59.58359,-10.50834 3.82736,0.62111 4.4168,0.35031 5.5129,-2.53265 0.961,-2.52762 0.74101,-4.19592 -1.01379,-7.68803 -4.82137,-9.59464 -11.2094,-31.01191 -15.39209,-51.60528 l -4.38158,-21.57268 0.18384,-33.15346 c 0.10115,-18.234398 0.31045,-36.180377 0.46521,-39.879951 0.2615,-6.251812 -0.0844,-7.210854 -4.90203,-13.59008 C 158.41484,37.17017 137.32978,30.052464 111.16537,33.534299 91.945011,36.092053 82.299139,41.504115 70.375973,56.420241 53.222862,77.879137 42.567042,105.50788 41.039392,132.48504 c -0.788919,13.93172 0.653258,37.94295 3.222257,53.64832 1.834858,11.21726 11.218579,32.33523 17.87674,40.23141 5.281281,6.26329 12.203288,12.21133 14.210872,12.21133 0.602896,0 2.11874,1.89879 3.368542,4.21953 1.249802,2.32075 2.591029,4.21953 2.980504,4.21953 0.389475,0 1.613609,-1.89878 2.720295,-4.21953 z m -5.64764,-41.7724 c -0.314741,-1.55873 -1.438807,-17.75312 -2.497925,-35.98752 -1.059118,-18.2344 -2.239373,-36.30878 -2.622787,-40.16526 l -0.697117,-7.01181 -4.279423,0.38112 c -2.704997,0.2409 -4.475166,-0.19131 -4.811468,-1.17478 -0.904106,-2.64395 7.522411,-9.36987 15.559415,-12.4193 6.886572,-2.61293 9.517679,-2.90294 26.337393,-2.90294 16.10705,0 19.8862,0.37946 27.37769,2.74894 9.9889,3.15938 15.08497,6.96105 18.62019,13.89064 6.21329,12.17907 -2.53601,28.36812 -16.73414,30.9636 -3.16521,0.57861 -7.92497,1.57597 -10.57725,2.21635 -2.65227,0.64038 -6.85673,1.51717 -9.34324,1.9484 -2.48651,0.43124 -4.52093,1.18738 -4.52093,1.6803 0,0.49293 2.84818,2.55886 6.3293,4.59097 3.48111,2.03211 10.39813,6.06931 15.37115,8.97155 4.97301,2.90224 13.26126,7.34846 18.41833,9.88049 l 9.37648,4.60367 -2.1143,3.57924 c -1.16287,1.96858 -4.08535,5.50391 -6.4944,7.85627 l -4.38009,4.27705 -11.92394,-5.95537 c -6.55816,-3.27546 -17.34746,-9.23507 -23.97619,-13.24359 -6.62876,-4.00852 -12.207048,-7.13344 -12.396216,-6.94428 -0.189167,0.18918 0.275406,6.68683 1.032386,14.43924 0.75699,7.7524 1.0009,14.47102 0.54202,14.93028 -0.45887,0.45924 -5.376697,1.02531 -10.928491,1.2579 -9.781327,0.40981 -10.111927,0.33508 -10.666447,-2.41116 z m 30.489188,-64.39601 c 6.88605,-2.04493 20.74775,-9.97902 21.52895,-12.32262 0.26571,-0.79715 -0.91999,-1.98283 -2.63489,-2.63483 -3.96508,-1.50752 -30.31768,-1.03772 -31.922223,0.5691 -0.803206,0.80434 -0.572217,3.7194 0.692594,8.74046 2.138689,8.49019 2.384899,8.60292 12.335569,5.64789 z m 216.84689,82.3582 c 11.39588,-23.60233 12.84085,-32.38889 11.96143,-72.73441 -0.91028,-41.761 -2.63002,-49.986891 -16.22378,-77.602296 -9.52436,-19.348488 -23.5344,-30.407387 -43.69769,-34.492992 -11.87572,-2.406329 -35.84535,-1.721836 -47.80746,1.365219 -11.18048,2.885346 -31.80336,17.776811 -36.08487,26.056328 -8.7835,16.985432 -6.02034,75.435661 5.57478,117.925401 3.39028,12.42347 5.88263,19.93239 10.60413,31.94788 l 2.36866,6.0279 9.89747,0.60279 c 9.6835,0.58976 9.97992,0.70109 13.71162,5.15024 l 3.81414,4.54743 4.59647,-4.33552 c 4.23069,-3.9905 4.99642,-4.2701 9.62253,-3.51349 2.76433,0.45212 5.56857,0.89927 6.23164,0.99366 0.66307,0.0944 1.59499,1.12102 2.07093,2.28139 1.34108,3.26971 4.94237,2.48141 7.2589,-1.58891 l 2.09635,-3.68345 8.75388,0.73268 c 14.81911,1.24031 16.59141,1.71647 18.0145,4.83979 1.60408,3.52058 4.06095,4.59605 6.9578,3.04569 1.48049,-0.79233 3.86929,-0.63583 7.44754,0.48793 2.89738,0.90991 5.88914,1.70803 6.64838,1.77359 0.75924,0.0656 3.54143,-4.35653 6.18265,-9.82685 z m -91.0084,-25.20269 c -5.44771,-3.54408 -9.92343,-6.78017 -9.94603,-7.1913 -0.0227,-0.41112 2.53581,-1.44642 5.68539,-2.30065 3.14958,-0.85423 8.3854,-2.8742 11.63518,-4.48882 6.18862,-3.07478 17.60014,-11.12456 17.60014,-12.4153 0,-0.4131 -3.11944,-2.31657 -6.93208,-4.22991 -8.38457,-4.20774 -19.34433,-14.91015 -22.50815,-21.97963 -2.21199,-4.94262 -2.22512,-5.45623 -0.29615,-11.57562 5.43627,-17.24585 21.95177,-35.128877 37.4843,-40.58813 6.25295,-2.197737 7.00368,-2.218437 14.19545,-0.391476 8.33528,2.117457 12.48558,4.11696 19.40319,9.347925 4.29909,3.250881 4.4567,3.592771 2.60149,5.642771 -1.08618,1.20021 -5.58684,3.61534 -10.00147,5.36695 -17.34576,6.88233 -30.84869,15.73229 -35.67648,23.38275 -5.42424,8.59565 -5.29862,9.07315 3.7857,14.38977 4.50539,2.63679 11.69674,6.04492 15.98075,7.57362 17.55538,6.2644 23.4434,21.27638 12.47909,31.81647 -6.27863,6.03571 -22.71559,11.86365 -37.51225,13.30044 l -8.07314,0.78393 z"
       id="path4" /></g></svg>
